<?xml version="1.0" encoding="UTF-8"?>
<svg width="16px" height="12px" viewBox="0 0 16 12" version="1.1" xmlns="http://www.w3.org/2000/svg" xmlns:xlink="http://www.w3.org/1999/xlink">
    <!-- Generator: Sketch 51.2 (57519) - http://www.bohemiancoding.com/sketch -->
    <title>Shape</title>
    <desc>Created with Sketch.</desc>
    <defs></defs>
    <g id="Page-1" stroke="none" stroke-width="1" fill="none" fill-rule="evenodd">
        <g id="Notification-:-0--&gt;-/notification" transform="translate(-431.000000, -25.000000)" fill="#66757F">
            <g id="Messages" transform="translate(406.000000, 0.000000)">
                <g id="Icon-24px" transform="translate(25.000000, 25.000000)">
                    <path d="M14,0 L2,0 C1.175,0 0.5075,0.675 0.5075,1.5 L0.5,10.5 C0.5,11.325 1.175,12 2,12 L14,12 C14.825,12 15.5,11.325 15.5,10.5 L15.5,1.5 C15.5,0.675 14.825,0 14,0 L14,0 Z M14,10.5 L2,10.5 L2,3 L8,6.75 L14,3 L14,10.5 L14,10.5 Z M8,5.25 L2,1.5 L14,1.5 L8,5.25 L8,5.25 Z" id="Shape"></path>
                </g>
            </g>
        </g>
    </g>
</svg>