<?xml version="1.0" encoding="UTF-8"?>
<svg width="5px" height="5px" viewBox="0 0 5 5" version="1.1" xmlns="http://www.w3.org/2000/svg" xmlns:xlink="http://www.w3.org/1999/xlink">
    <!-- Generator: Sketch 51.2 (57519) - http://www.bohemiancoding.com/sketch -->
    <title>Fill 35 Copy 2</title>
    <desc>Created with Sketch.</desc>
    <defs></defs>
    <g id="Page-1" stroke="none" stroke-width="1" fill="none" fill-rule="evenodd">
        <g id="Profil-:-2--&gt;-/profil" transform="translate(-975.000000, -513.000000)" fill="#FFFFFE">
            <path d="M978.632632,515.49942 L979.765564,514.367456 C980.078145,514.055466 980.078145,513.547482 979.765564,513.235492 C979.452583,512.921503 978.945413,512.921503 978.632632,513.235492 L977.4999,514.367456 L976.367168,513.235492 C976.054587,512.921503 975.547417,512.921503 975.234436,513.235492 C974.921855,513.547482 974.921855,514.055466 975.234436,514.367456 L976.367168,515.49942 L975.234436,516.633384 C974.921855,516.945374 974.921855,517.453358 975.234436,517.765348 C975.547417,518.079337 976.054587,518.079337 976.367168,517.765348 L977.4999,516.633384 L978.632632,517.765348 C978.945413,518.079337 979.452583,518.079337 979.765564,517.765348 C980.078145,517.453358 980.078145,516.945374 979.765564,516.633384 L978.632632,515.49942" id="Fill-35-Copy-2"></path>
        </g>
    </g>
</svg>