<?xml version="1.0" encoding="UTF-8"?>
<svg width="11px" height="10px" viewBox="0 0 11 10" version="1.1" xmlns="http://www.w3.org/2000/svg" xmlns:xlink="http://www.w3.org/1999/xlink">
    <!-- Generator: Sketch 51.2 (57519) - http://www.bohemiancoding.com/sketch -->
    <title>Shape</title>
    <desc>Created with Sketch.</desc>
    <defs></defs>
    <g id="Page-1" stroke="none" stroke-width="1" fill="none" fill-rule="evenodd">
        <g id="Home-:-6--&gt;-/" transform="translate(-917.000000, -358.000000)" fill="#FFFFFF">
            <g id="ic_chat" transform="translate(917.000000, 358.000000)">
                <g id="Icon-24px">
                    <path d="M9.16666667,0.916666667 L1.83333333,0.916666667 C1.32916667,0.916666667 0.92125,1.32916667 0.92125,1.83333333 L0.916666667,10.0833333 L2.75,8.25 L9.16666667,8.25 C9.67083333,8.25 10.0833333,7.8375 10.0833333,7.33333333 L10.0833333,1.83333333 C10.0833333,1.32916667 9.67083333,0.916666667 9.16666667,0.916666667 L9.16666667,0.916666667 Z M2.75,4.125 L8.25,4.125 L8.25,5.04166667 L2.75,5.04166667 L2.75,4.125 L2.75,4.125 Z M6.41666667,6.41666667 L2.75,6.41666667 L2.75,5.5 L6.41666667,5.5 L6.41666667,6.41666667 L6.41666667,6.41666667 Z M8.25,3.66666667 L2.75,3.66666667 L2.75,2.75 L8.25,2.75 L8.25,3.66666667 L8.25,3.66666667 Z" id="Shape"></path>
                </g>
            </g>
        </g>
    </g>
</svg>