<?xml version="1.0" encoding="UTF-8"?>
<svg width="14px" height="14px" viewBox="0 0 14 14" version="1.1" xmlns="http://www.w3.org/2000/svg" xmlns:xlink="http://www.w3.org/1999/xlink">
    <!-- Generator: Sketch 51.2 (57519) - http://www.bohemiancoding.com/sketch -->
    <title>Shape</title>
    <desc>Created with Sketch.</desc>
    <defs></defs>
    <g id="Page-1" stroke="none" stroke-width="1" fill="none" fill-rule="evenodd">
        <g id="Homepage---0--&gt;-/" transform="translate(-965.000000, -285.000000)" fill="#ACACAC">
            <g id="ic_person_outline" transform="translate(962.000000, 282.000000)">
                <g id="Icon-24px">
                    <path d="M10,4.91666667 C10.9666667,4.91666667 11.75,5.7 11.75,6.66666667 C11.75,7.63333333 10.9666667,8.41666667 10,8.41666667 C9.03333333,8.41666667 8.25,7.63333333 8.25,6.66666667 C8.25,5.7 9.03333333,4.91666667 10,4.91666667 L10,4.91666667 Z M10,12.4166667 C12.475,12.4166667 15.0833333,13.6333333 15.0833333,14.1666667 L15.0833333,15.0833333 L4.91666667,15.0833333 L4.91666667,14.1666667 C4.91666667,13.6333333 7.525,12.4166667 10,12.4166667 L10,12.4166667 Z M10,3.33333333 C8.15833333,3.33333333 6.66666667,4.825 6.66666667,6.66666667 C6.66666667,8.50833333 8.15833333,10 10,10 C11.8416667,10 13.3333333,8.50833333 13.3333333,6.66666667 C13.3333333,4.825 11.8416667,3.33333333 10,3.33333333 L10,3.33333333 Z M10,10.8333333 C7.775,10.8333333 3.33333333,11.95 3.33333333,14.1666667 L3.33333333,16.6666667 L16.6666667,16.6666667 L16.6666667,14.1666667 C16.6666667,11.95 12.225,10.8333333 10,10.8333333 L10,10.8333333 Z" id="Shape"></path>
                </g>
            </g>
        </g>
    </g>
</svg>