<?xml version="1.0" encoding="UTF-8"?>
<svg width="10px" height="10px" viewBox="0 0 10 10" version="1.1" xmlns="http://www.w3.org/2000/svg" xmlns:xlink="http://www.w3.org/1999/xlink">
    <!-- Generator: Sketch 51.2 (57519) - http://www.bohemiancoding.com/sketch -->
    <title>Fill 35</title>
    <desc>Created with Sketch.</desc>
    <defs></defs>
    <g id="Page-1" stroke="none" stroke-width="1" fill="none" fill-rule="evenodd">
        <g id="Home-:-6--&gt;-/" transform="translate(-1276.000000, -132.000000)" fill="#FFFFFE">
            <path d="M1283.26526,136.9987 L1285.53113,134.734836 C1286.15629,134.110873 1286.15629,133.094934 1285.53113,132.470972 C1284.90517,131.843009 1283.89083,131.843009 1283.26526,132.470972 L1280.9998,134.734836 L1278.73434,132.470972 C1278.10917,131.843009 1277.09483,131.843009 1276.46887,132.470972 C1275.84371,133.094934 1275.84371,134.110873 1276.46887,134.734836 L1278.73434,136.9987 L1276.46887,139.266564 C1275.84371,139.890527 1275.84371,140.906466 1276.46887,141.530428 C1277.09483,142.15839 1278.10917,142.15839 1278.73434,141.530428 L1280.9998,139.266564 L1283.26526,141.530428 C1283.89083,142.15839 1284.90517,142.15839 1285.53113,141.530428 C1286.15629,140.906466 1286.15629,139.890527 1285.53113,139.266564 L1283.26526,136.9987" id="Fill-35"></path>
        </g>
    </g>
</svg>