<?xml version="1.0" encoding="UTF-8"?>
<svg width="12px" height="15px" viewBox="0 0 12 15" version="1.1" xmlns="http://www.w3.org/2000/svg" xmlns:xlink="http://www.w3.org/1999/xlink">
    <!-- Generator: Sketch 51.2 (57519) - http://www.bohemiancoding.com/sketch -->
    <title>Shape</title>
    <desc>Created with Sketch.</desc>
    <defs></defs>
    <g id="Page-1" stroke="none" stroke-width="1" fill="none" fill-rule="evenodd">
        <g id="Homepage---0--&gt;-/" transform="translate(-966.000000, -554.000000)" fill="#ACACAC">
            <g id="ic_lock_outline" transform="translate(966.000000, 554.000000)">
                <g id="Icon-24px">
                    <path d="M6,11.4285714 C6.825,11.4285714 7.5,10.7857143 7.5,10 C7.5,9.21428571 6.825,8.57142857 6,8.57142857 C5.175,8.57142857 4.5,9.21428571 4.5,10 C4.5,10.7857143 5.175,11.4285714 6,11.4285714 L6,11.4285714 Z M10.5,5 L9.75,5 L9.75,3.57142857 C9.75,1.6 8.07,0 6,0 C3.93,0 2.25,1.6 2.25,3.57142857 L2.25,5 L1.5,5 C0.675,5 0,5.64285714 0,6.42857143 L0,13.5714286 C0,14.3571429 0.675,15 1.5,15 L10.5,15 C11.325,15 12,14.3571429 12,13.5714286 L12,6.42857143 C12,5.64285714 11.325,5 10.5,5 L10.5,5 Z M3.675,3.57142857 C3.675,2.35 4.7175,1.35714286 6,1.35714286 C7.2825,1.35714286 8.325,2.35 8.325,3.57142857 L8.325,5 L3.675,5 L3.675,3.57142857 L3.675,3.57142857 Z M10.5,13.5714286 L1.5,13.5714286 L1.5,6.42857143 L10.5,6.42857143 L10.5,13.5714286 L10.5,13.5714286 Z" id="Shape"></path>
                </g>
            </g>
        </g>
    </g>
</svg>