<?xml version="1.0" encoding="UTF-8"?>
<svg width="13px" height="12px" viewBox="0 0 13 12" version="1.1" xmlns="http://www.w3.org/2000/svg" xmlns:xlink="http://www.w3.org/1999/xlink">
    <!-- Generator: Sketch 51.2 (57519) - http://www.bohemiancoding.com/sketch -->
    <title>Fill 158</title>
    <desc>Created with Sketch.</desc>
    <defs></defs>
    <g id="Page-1" stroke="none" stroke-width="1" fill="none" fill-rule="evenodd">
        <g id="Home-:-4-&gt;-/" transform="translate(-535.000000, -312.000000)" fill="#FFFFFE">
            <path d="M545.553742,316.8 L545.553742,314.4 C547.158991,314.4 547.175644,314.3164 547.175644,315.2 C547.175644,316.0836 546.449789,316.8 545.553742,316.8 L545.553742,316.8 Z M537.446258,316.8 C536.550617,316.8 535.824356,316.0836 535.824356,315.2 C535.824356,314.3164 535.841009,314.4 537.446258,314.4 L537.446258,316.8 L537.446258,316.8 Z M545.553742,313.6 C545.553742,312.7164 544.827886,312 543.932245,312 L539.067755,312 C538.172114,312 537.446258,312.7164 537.446258,313.6 C534.669161,313.6 535.013607,313.5996 535.013607,315.2 C535.013607,316.5252 536.102593,317.6 537.446258,317.6 C537.542931,317.6 537.635541,317.5848 537.728964,317.572 C538.273254,319.1416 539.555585,320.5556 541.094626,320.7712 L541.094626,323.2 L539.878503,323.2 C539.654695,323.2 539.473129,323.3788 539.473129,323.6 C539.473129,323.8212 539.654695,324 539.878503,324 L543.121497,324 C543.345305,324 543.526871,323.8212 543.526871,323.6 C543.526871,323.3788 543.345305,323.2 543.121497,323.2 L541.905374,323.2 L541.905374,320.7712 C543.444415,320.5556 544.726746,319.1416 545.271442,317.572 C545.364459,317.5848 545.457069,317.6 545.553742,317.6 C546.897407,317.6 547.986393,316.5252 547.986393,315.2 C547.986393,313.5996 548.330839,313.6 545.553742,313.6 L545.553742,313.6 Z" id="Fill-158"></path>
        </g>
    </g>
</svg>