<?xml version="1.0" encoding="UTF-8"?>
<svg width="10px" height="10px" viewBox="0 0 10 10" version="1.1" xmlns="http://www.w3.org/2000/svg" xmlns:xlink="http://www.w3.org/1999/xlink">
    <!-- Generator: Sketch 51.2 (57519) - http://www.bohemiancoding.com/sketch -->
    <title>Fill 35</title>
    <desc>Created with Sketch.</desc>
    <defs></defs>
    <g id="Page-1" stroke="none" stroke-width="1" fill="none" fill-rule="evenodd" opacity="0.154464286">
        <g id="Profil-:-2--&gt;-/profil" transform="translate(-750.000000, -207.000000)" fill="#66757F">
            <path d="M757.26667,211.999871 L759.531369,209.73717 C760.15621,209.113529 760.15621,208.098112 759.531369,207.47447 C758.905728,206.84683 757.891911,206.84683 757.26667,207.47447 L755.00237,209.73717 L752.73807,207.47447 C752.113229,206.84683 751.099411,206.84683 750.47377,207.47447 C749.848929,208.098112 749.848929,209.113529 750.47377,209.73717 L752.73807,211.999871 L750.47377,214.26657 C749.848929,214.890211 749.848929,215.905628 750.47377,216.52927 C751.099411,217.15691 752.113229,217.15691 752.73807,216.52927 L755.00237,214.26657 L757.26667,216.52927 C757.891911,217.15691 758.905728,217.15691 759.531369,216.52927 C760.15621,215.905628 760.15621,214.890211 759.531369,214.26657 L757.26667,211.999871" id="Fill-35"></path>
        </g>
    </g>
</svg>