<?xml version="1.0" encoding="UTF-8"?>
<svg width="8px" height="12px" viewBox="0 0 8 12" version="1.1" xmlns="http://www.w3.org/2000/svg" xmlns:xlink="http://www.w3.org/1999/xlink">
    <!-- Generator: Sketch 51.2 (57519) - http://www.bohemiancoding.com/sketch -->
    <title>Fill 173</title>
    <desc>Created with Sketch.</desc>
    <defs></defs>
    <g id="Page-1" stroke="none" stroke-width="1" fill="none" fill-rule="evenodd">
        <g id="Home-:-6--&gt;-/" transform="translate(-978.000000, -357.000000)" fill="#FFFFFE">
            <g id="Fill-173" transform="translate(978.000000, 357.000000)">
                <path d="M6.4,5.25525 C5.7308,4.783125 4.902,4.5 4,4.5 C3.0984,4.5 2.2692,4.783125 1.6,5.25525 L1.6,3 C1.6,1.757625 2.6748,0.75 4,0.75 C5.3252,0.75 6.4,1.757625 6.4,3 L6.4,5.25525 L6.4,5.25525 Z M4.4,9.375 C4.4,9.582375 4.2212,9.75 4,9.75 C3.7788,9.75 3.6,9.582375 3.6,9.375 L3.6,7.875 C3.6,7.668 3.7788,7.5 4,7.5 C4.2212,7.5 4.4,7.668 4.4,7.875 L4.4,9.375 L4.4,9.375 Z M7.2,6.007125 L7.2,3 C7.2,1.34325 5.7672,0 4,0 C2.2328,0 0.8,1.34325 0.8,3 L0.8,6.007125 C0.3,6.633 0,7.40775 0,8.25 C0,10.321125 1.7912,12 4,12 C6.2088,12 8,10.321125 8,8.25 C8,7.40775 7.7,6.633 7.2,6.007125 L7.2,6.007125 Z"></path>
            </g>
        </g>
    </g>
</svg>