<?xml version="1.0" encoding="UTF-8"?>
<svg width="13px" height="12px" viewBox="0 0 13 12" version="1.1" xmlns="http://www.w3.org/2000/svg" xmlns:xlink="http://www.w3.org/1999/xlink">
    <!-- Generator: Sketch 51.2 (57519) - http://www.bohemiancoding.com/sketch -->
    <title>Fill 158</title>
    <desc>Created with Sketch.</desc>
    <defs></defs>
    <g id="Page-1" stroke="none" stroke-width="1" fill="none" fill-rule="evenodd">
        <g id="Home-:-6--&gt;-/" transform="translate(-846.000000, -357.000000)" fill="#FFFFFE">
            <path d="M856.553742,361.8 L856.553742,359.4 C858.158991,359.4 858.175644,359.3164 858.175644,360.2 C858.175644,361.0836 857.449789,361.8 856.553742,361.8 L856.553742,361.8 Z M848.446258,361.8 C847.550617,361.8 846.824356,361.0836 846.824356,360.2 C846.824356,359.3164 846.841009,359.4 848.446258,359.4 L848.446258,361.8 L848.446258,361.8 Z M856.553742,358.6 C856.553742,357.7164 855.827886,357 854.932245,357 L850.067755,357 C849.172114,357 848.446258,357.7164 848.446258,358.6 C845.669161,358.6 846.013607,358.5996 846.013607,360.2 C846.013607,361.5252 847.102593,362.6 848.446258,362.6 C848.542931,362.6 848.635541,362.5848 848.728964,362.572 C849.273254,364.1416 850.555585,365.5556 852.094626,365.7712 L852.094626,368.2 L850.878503,368.2 C850.654695,368.2 850.473129,368.3788 850.473129,368.6 C850.473129,368.8212 850.654695,369 850.878503,369 L854.121497,369 C854.345305,369 854.526871,368.8212 854.526871,368.6 C854.526871,368.3788 854.345305,368.2 854.121497,368.2 L852.905374,368.2 L852.905374,365.7712 C854.444415,365.5556 855.726746,364.1416 856.271442,362.572 C856.364459,362.5848 856.457069,362.6 856.553742,362.6 C857.897407,362.6 858.986393,361.5252 858.986393,360.2 C858.986393,358.5996 859.330839,358.6 856.553742,358.6 L856.553742,358.6 Z" id="Fill-158"></path>
        </g>
    </g>
</svg>