<?xml version="1.0" encoding="UTF-8"?>
<svg width="15px" height="11px" viewBox="0 0 15 11" version="1.1" xmlns="http://www.w3.org/2000/svg" xmlns:xlink="http://www.w3.org/1999/xlink">
    <!-- Generator: Sketch 51.2 (57519) - http://www.bohemiancoding.com/sketch -->
    <title>Fill 186</title>
    <desc>Created with Sketch.</desc>
    <defs></defs>
    <g id="Page-1" stroke="none" stroke-width="1" fill="none" fill-rule="evenodd">
        <g id="Homepage---0--&gt;-/" transform="translate(-965.000000, -334.000000)" fill="#ACACAC">
            <g id="Fill-186" transform="translate(965.000000, 334.000000)">
                <path d="M14.0625,9.16666667 C14.0625,9.25970833 14.0442188,9.34770833 14.0179688,9.43158333 L9.84375,5.04166667 L14.0625,1.83333333 L14.0625,9.16666667 L14.0625,9.16666667 Z M1.666875,10.0585833 L5.896875,5.65125 L7.5,6.83604167 L9.03375,5.64391667 L13.333125,10.0585833 C13.2660937,10.0737083 1.73390625,10.0737083 1.666875,10.0585833 L1.666875,10.0585833 Z M0.9375,9.16666667 L0.9375,1.83333333 L5.15625,5.04166667 L0.98203125,9.43158333 C0.95578125,9.34770833 0.9375,9.25970833 0.9375,9.16666667 L0.9375,9.16666667 Z M13.59375,0.916666667 L7.5,5.5 L1.40625,0.916666667 L13.59375,0.916666667 L13.59375,0.916666667 Z M13.125,0 L1.875,0 C0.83953125,0 0,0.820875 0,1.83333333 L0,9.16666667 C0,10.179125 0.83953125,11 1.875,11 L13.125,11 C14.1604688,11 15,10.179125 15,9.16666667 L15,1.83333333 C15,0.820875 14.1604688,0 13.125,0 L13.125,0 Z"></path>
            </g>
        </g>
    </g>
</svg>