<?xml version="1.0" encoding="UTF-8"?>
<svg width="12px" height="8px" viewBox="0 0 12 8" version="1.1" xmlns="http://www.w3.org/2000/svg" xmlns:xlink="http://www.w3.org/1999/xlink">
    <!-- Generator: Sketch 51.2 (57519) - http://www.bohemiancoding.com/sketch -->
    <title>Icon 24px Copy 12</title>
    <desc>Created with Sketch.</desc>
    <defs></defs>
    <g id="Page-1" stroke="none" stroke-width="1" fill="none" fill-rule="evenodd">
        <g id="Home-:-6--&gt;-/" transform="translate(-484.000000, -497.000000)" fill="#E6C2AA">
            <g id="Icon-24px-Copy-12" transform="translate(484.000000, 497.000000)">
                <path d="M6,0 C3.27272727,0 0.943636364,1.65866667 0,4 C0.943636364,6.34133333 3.27272727,8 6,8 C8.72727273,8 11.0563636,6.34133333 12,4 C11.0563636,1.65866667 8.72727273,0 6,0 L6,0 Z M6,6.66666667 C4.49454545,6.66666667 3.27272727,5.472 3.27272727,4 C3.27272727,2.528 4.49454545,1.33333333 6,1.33333333 C7.50545455,1.33333333 8.72727273,2.528 8.72727273,4 C8.72727273,5.472 7.50545455,6.66666667 6,6.66666667 L6,6.66666667 Z M6,2.4 C5.09454545,2.4 4.36363636,3.11466667 4.36363636,4 C4.36363636,4.88533333 5.09454545,5.6 6,5.6 C6.90545455,5.6 7.63636364,4.88533333 7.63636364,4 C7.63636364,3.11466667 6.90545455,2.4 6,2.4 L6,2.4 Z" id="Shape"></path>
            </g>
        </g>
    </g>
</svg>