<?xml version="1.0" encoding="UTF-8"?>
<svg width="18px" height="18px" viewBox="0 0 18 18" version="1.1" xmlns="http://www.w3.org/2000/svg" xmlns:xlink="http://www.w3.org/1999/xlink">
    <!-- Generator: Sketch 51.2 (57519) - http://www.bohemiancoding.com/sketch -->
    <title>Fill 63</title>
    <desc>Created with Sketch.</desc>
    <defs></defs>
    <g id="Page-1" stroke="none" stroke-width="1" fill="none" fill-rule="evenodd">
        <g id="Message-:-0--&gt;-/message" transform="translate(-143.000000, -22.000000)" fill="#66757F" stroke="#66757F" stroke-width="0.5">
            <g id="Accueil" transform="translate(119.000000, 0.000000)">
                <path d="M37.206,36.875 C37.206,37.4615 36.732125,37.9375 36.14775,37.9375 L29.7993125,37.9375 C29.2149375,37.9375 28.7235313,37.4615 28.7235313,36.875 L28.7235313,28.7070312 L32.9735313,23.5565625 L37.2235313,28.6905625 L37.206,36.875 L37.206,36.875 Z M32.9735313,22 L25,31.3802812 L25.748,32.1314687 L27.6610313,29.96875 L27.6610313,36.875 C27.6610313,38.0485313 28.6305625,39 29.7993125,39 L36.14775,39 C37.3165,39 38.2860313,38.0485313 38.2860313,36.875 L38.2860313,29.96875 L40.1990625,32.1314687 L40.9470625,31.3802812 L32.9735313,22 L32.9735313,22 Z" id="Fill-63"></path>
            </g>
        </g>
    </g>
</svg>