<?xml version="1.0" encoding="UTF-8"?>
<svg width="16px" height="16px" viewBox="0 0 16 16" version="1.1" xmlns="http://www.w3.org/2000/svg" xmlns:xlink="http://www.w3.org/1999/xlink">
    <!-- Generator: Sketch 51.2 (57519) - http://www.bohemiancoding.com/sketch -->
    <title>Fill 37</title>
    <desc>Created with Sketch.</desc>
    <defs></defs>
    <g id="Page-1" stroke="none" stroke-width="1" fill="none" fill-rule="evenodd" opacity="0.149553571">
        <g id="Profil-:-2--&gt;-/profil" transform="translate(-1066.000000, -582.000000)" fill="#66757F">
            <path d="M1080,588 L1076,588 L1076,584 C1076,582.895 1075.1045,582 1074,582 C1072.8955,582 1072,582.895 1072,584 L1072,588 L1068,588 C1066.8955,588 1066,588.895 1066,590 C1066,591.105 1066.8955,592 1068,592 L1072,592 L1072,596 C1072,597.105 1072.8955,598 1074,598 C1075.1045,598 1076,597.105 1076,596 L1076,592 L1080,592 C1081.1045,592 1082,591.105 1082,590 C1082,588.895 1081.1045,588 1080,588" id="Fill-37"></path>
        </g>
    </g>
</svg>